<?xml version="1.0" encoding="utf-8"?>
<!-- Generator: Adobe Illustrator 26.0.3, SVG Export Plug-In . SVG Version: 6.00 Build 0)  -->
<svg version="1.1" xmlns="http://www.w3.org/2000/svg" xmlns:xlink="http://www.w3.org/1999/xlink" x="0px" y="0px"
	 viewBox="0 0 172.3 93" style="enable-background:new 0 0 172.3 93;" xml:space="preserve">
<style type="text/css">
	.st0{display:none;}
	.st1{display:inline;}
	.st2{fill:#FFFFFF;}
	.st3{fill:#9B8449;}
</style>
<g id="Layer_2" class="st0">
	<rect x="-28.9" y="-26.4" class="st1" width="231.5" height="123.3"/>
</g>
<g id="Layer_1">
	<g>
		<g>
			<path class="st2" d="M150.1,42.4c-1.7-2.8-3.6-5.4-5.5-8.1c0.3-0.2,0.5-0.4,0.8-0.5c2.8-1.1,4.9-2.9,6-5.8c1.1-2.8,1-5.6,0.5-8.3
				c-0.5-3-2-5.9-4.5-7.9c-2.8-2.2-6.8-3.5-10.3-3.6c-6.1-0.1-12.3,0-18.4,0c-0.9,0-1.6-0.1-2.8,0c0.2,5.2,0,10.4,0.2,15.8
				c4.8,0.4,9.4-0.1,14.6,0.3c-5.2,4.3-10.5,7.2-14.9,11.4c0.1,5.2,0,9.7,0.3,15.5c1.9,0.1,3.6,0.1,5.3,0.1c1.7,0,7.5,0.2,10.4-0.1
				V38.7c2.6,4.6,3.9,9.1,6.5,12.6c7.1-0.2,12.7-0.2,17.2-0.4C153.2,47.1,151.7,45.2,150.1,42.4z M136.4,25
				c-0.9,1.5-2.5,2.2-4.8,1.7v-6.5c1.3-0.7,2.2-0.3,3.2,0.2c0.4,0.2,0.8,0.5,1,0.9C136.7,22.5,137.1,23.8,136.4,25z"/>
			<path class="st2" d="M45.7,25.7c-2.4-0.9-4.9-1.6-7.4-2.3c-2-0.5-2.5-0.7-2.9-2c-0.1-0.2-0.1-0.8,0-1.1c0.1-0.2,0.2-0.5,0.5-0.9
				c0.3-0.3,1-0.4,1.6-0.5c3.5-0.5,6.3,2.1,9.5,3.5c1.2-3.9,2.8-7.6,4-11.3C46.4,8,41.3,7.3,36.2,7.6c-6.5,0.4-12,2.7-15.2,8.9
				c-3.9,7.3-1.3,15.3,6.8,17.8c2.1,0.6,4.3,0.9,6.4,1.4c0.9,0.2,1.7,0.5,2.2,1.3c0.2,0.4,0.2,0.8,0,1.2c-1.2,1.9-2.6,2.5-4.8,2
				c-1.2-0.3-2.3-0.8-3.4-1.3c-1.8-0.9-3.5-1.8-5.3-2.6c-1.6,2-3.9,7.9-4.7,12c1.4,0.6,2.7,1.2,4,1.6c2.4,0.7,4.7,1.5,7.2,1.9
				c7.5,1.1,14.3,0,19.5-5.8c3.2-3.6,4.8-7.8,3.2-12.7C51.1,29.7,49.2,26.8,45.7,25.7z"/>
			<path class="st3" d="M128.1,25.3c-4.5-0.3-8.1-0.2-11.8-0.3c-3.8-0.1-7.6-0.4-11.8-0.4c-0.8-2.6-1.6-4.9-2.4-7.3
				c-0.7-2.3-1.3-4.6-2.1-6.9c-0.8-2.3-1.4-4.6-2.7-7.1c-0.4,1.1-0.6,1.6-1,2.6c-1.4,4.3-3,8.6-4.4,12.9c-0.6,2-1.3,3.9-2,5.8
				c-5.6,0-10.8,0.1-16.1,0.2c-2.7,0.2-3.9,0.1-7.4,0.3c3.7,2.6,6.9,5.1,10,7.5c3,2.4,6.5,4.2,8.8,7.1c-2.4,7.4-4.8,14.5-7.3,22.3
				c3.9-2.2,6.6-4.8,9.7-6.8c3.2-2.2,6.3-4.5,9.5-6.9c6.9,4.2,12.8,9.7,19.6,13.7c-2.5-7.5-5-15.1-7.5-22.7
				C115.5,34.7,121.5,30.2,128.1,25.3z M106.9,37.1c-1.2,0.2-2.3,0.4-3.6,0.6c-0.3,1.8-0.6,3.4-0.9,5.1c0.4,1.2,0.7,2.5,1.2,4
				c-1.1,0.1-2.1,0.2-2.9,0.2c-2.7-2.7,0-5.4-0.2-8c-2.1-0.4-2.7-0.3-6.2,1.5c-2.3-1.3-4.6-2.5-7.2-4c-0.3-0.8-0.8-2.1-1.3-3.5
				c-2-1-4.1-2-6.3-3c5.9-0.9,11.9-1.7,18.5-2.7c3.9,1.6,8.5,3.4,13,5.2c-0.8,1.7-2.6,0.8-3.6,1.5C106,34.8,106.8,35.9,106.9,37.1z"
				/>
			<path class="st2" d="M78.2,34.9c-4.8-3.6-9.5-7.2-14.3-10.7c0,0,0,0,0-0.1c1.6,0,3.2,0,4.7-0.1h10.2v-1.8c0,0,0-0.1,0.1-0.1h6.8
				c0-5.1,0-11.1-0.1-13.6C81.3,7.9,56.1,8,54.1,8.8c0,4.4,0.2,11.4,0.4,13.7h7.8c0,1.3,0,2.3,0,3.3c0,7.4,0,14.7,0,22.1
				c0,1.1,0,2.1,0.1,3c5.3-0.1,11-0.2,15.7-0.3C78.3,45.6,78.3,40.3,78.2,34.9z"/>
		</g>
		<g>
			<path class="st2" d="M26.7,67.8c0.2,0.1,0.6,0.2,0.9,0.2c0.6,0,1-0.3,1-0.8c0-0.4-0.3-0.7-0.8-0.9c-0.5-0.2-1.1-0.7-1.1-1.3
				c0-0.7,0.6-1.2,1.6-1.2c0.4,0,0.7,0.1,0.8,0.2l-0.2,0.4c-0.2-0.1-0.4-0.2-0.7-0.2c-0.6,0-0.9,0.3-0.9,0.6c0,0.4,0.3,0.6,0.9,0.9
				c0.7,0.4,1,0.8,1,1.3c0,0.8-0.7,1.3-1.7,1.3c-0.4,0-0.8-0.1-1-0.2L26.7,67.8z"/>
			<path class="st2" d="M31.8,63.9c0.3-0.1,0.6-0.1,1-0.1c0.6,0,1,0.1,1.3,0.3c0.3,0.2,0.4,0.5,0.4,0.9s-0.1,0.7-0.4,0.9
				c-0.3,0.3-0.9,0.5-1.4,0.5c-0.1,0-0.2,0-0.3,0v1.8h-0.7v-4.3L31.8,63.9L31.8,63.9z M32.5,66.2c0.1,0,0.2,0,0.3,0
				c0.7,0,1.1-0.3,1.1-1c0-0.5-0.2-0.9-1-0.9c-0.2,0-0.3,0-0.4,0C32.5,64.3,32.5,66.2,32.5,66.2z"/>
			<path class="st2" d="M38.6,68.4c-1,0-1.7-0.8-1.7-2.3s0.7-2.3,1.8-2.3c1,0,1.6,0.8,1.6,2.3C40.3,67.8,39.5,68.4,38.6,68.4
				L38.6,68.4z M38.6,68.1c0.8,0,1-1,1-1.9c0-0.8-0.2-1.8-1-1.8s-1,1-1,1.8C37.6,67.1,37.8,68.1,38.6,68.1L38.6,68.1z"/>
			<path class="st2" d="M42.9,68.4v-4.5h0.6l1.1,2.1c0.2,0.5,0.6,1.1,0.8,1.6l0,0c-0.1-0.7-0.1-1.3-0.1-2.1v-1.6h0.6v4.5h-0.6
				l-1.1-2.2c-0.2-0.5-0.5-1-0.7-1.5l0,0c0.1,0.6,0.1,1.2,0.1,2.1v1.6H42.9z"/>
			<path class="st2" d="M48.7,67.8c0.2,0.1,0.6,0.2,0.9,0.2c0.6,0,1-0.3,1-0.8c0-0.4-0.3-0.7-0.8-0.9c-0.5-0.2-1.1-0.7-1.1-1.3
				c0-0.7,0.6-1.2,1.6-1.2c0.4,0,0.7,0.1,0.8,0.2l-0.2,0.4c-0.2-0.1-0.4-0.2-0.7-0.2c-0.6,0-0.9,0.3-0.9,0.6c0,0.4,0.3,0.6,0.9,0.9
				c0.7,0.4,1,0.8,1,1.3c0,0.8-0.7,1.3-1.7,1.3c-0.4,0-0.8-0.1-1-0.2L48.7,67.8z"/>
			<path class="st2" d="M55.3,68.4c-1,0-1.7-0.8-1.7-2.3s0.7-2.3,1.8-2.3c1,0,1.6,0.8,1.6,2.3C57,67.8,56.2,68.4,55.3,68.4
				L55.3,68.4z M55.3,68.1c0.8,0,1-1,1-1.9c0-0.8-0.2-1.8-1-1.8s-1,1-1,1.8C54.3,67.1,54.5,68.1,55.3,68.1L55.3,68.1z"/>
			<path class="st2" d="M59.6,63.9c0.3-0.1,0.7-0.1,1-0.1c0.6,0,1,0.1,1.4,0.3c0.3,0.2,0.4,0.5,0.4,0.9c0,0.6-0.4,1-1,1.2l0,0
				c0.4,0.1,0.7,0.4,0.8,1s0.3,1,0.3,1.1h-0.7c-0.1-0.1-0.2-0.6-0.3-1.1c-0.1-0.6-0.4-0.9-1-0.9h-0.3v2h-0.7L59.6,63.9L59.6,63.9z
				 M60.3,66.1h0.3c0.7,0,1.1-0.4,1.1-0.9s-0.3-0.8-1-0.9c-0.1,0-0.3,0-0.4,0C60.3,64.3,60.3,66.1,60.3,66.1z"/>
			<path class="st2" d="M64.9,67.8c0.2,0.1,0.6,0.2,0.9,0.2c0.6,0,1-0.3,1-0.8c0-0.4-0.3-0.7-0.8-0.9c-0.5-0.2-1.1-0.7-1.1-1.3
				c0-0.7,0.6-1.2,1.6-1.2c0.4,0,0.7,0.1,0.8,0.2l-0.2,0.4c-0.2-0.1-0.4-0.2-0.7-0.2c-0.6,0-0.9,0.3-0.9,0.6c0,0.4,0.3,0.6,0.9,0.9
				c0.7,0.4,1,0.8,1,1.3c0,0.8-0.7,1.3-1.7,1.3c-0.4,0-0.8-0.1-1-0.2L64.9,67.8z"/>
			<path class="st2" d="M70.8,63.8v1.9h1.7v-1.9h0.7v4.5h-0.7v-2.1h-1.7v2.1h-0.7v-4.5C70.1,63.8,70.8,63.8,70.8,63.8z"/>
			<path class="st2" d="M76.7,63.8v4.5H76v-4.5C76,63.8,76.7,63.8,76.7,63.8z"/>
			<path class="st2" d="M79.5,63.9c0.3-0.1,0.6-0.1,1-0.1c0.6,0,1,0.1,1.3,0.3c0.3,0.2,0.4,0.5,0.4,0.9s-0.1,0.7-0.4,0.9
				c-0.3,0.3-0.9,0.5-1.4,0.5c-0.1,0-0.2,0-0.3,0v1.8h-0.7v-4.3L79.5,63.9L79.5,63.9z M80.2,66.2c0.1,0,0.2,0,0.3,0
				c0.7,0,1.1-0.3,1.1-1c0-0.5-0.2-0.9-1-0.9c-0.2,0-0.3,0-0.4,0V66.2z"/>
			<path class="st2" d="M88.1,63.9c0.3-0.1,0.6-0.1,1-0.1c0.6,0,1,0.1,1.3,0.3c0.3,0.2,0.4,0.5,0.4,0.9s-0.1,0.8-0.4,1
				c-0.3,0.3-0.9,0.5-1.4,0.5c-0.1,0-0.2,0-0.3,0v1.8H88L88.1,63.9L88.1,63.9z M88.8,66.2c0.1,0,0.2,0,0.3,0c0.7,0,1.1-0.3,1.1-1
				c0-0.5-0.2-0.9-1-0.9c-0.2,0-0.3,0-0.4,0V66.2z"/>
			<path class="st2" d="M93.4,63.9c0.3-0.1,0.7-0.1,1-0.1c0.6,0,1,0.1,1.4,0.3c0.3,0.2,0.4,0.5,0.4,0.9c0,0.6-0.4,1-1,1.2l0,0
				c0.4,0.1,0.7,0.4,0.8,1c0.1,0.6,0.3,1,0.3,1.1h-0.6c-0.1-0.1-0.2-0.6-0.3-1.1c-0.1-0.6-0.4-0.9-1-0.9h-0.3v2h-0.7V63.9z
				 M94.1,66.1h0.3c0.7,0,1.1-0.4,1.1-0.9s-0.3-0.8-1-0.9c-0.1,0-0.3,0-0.4,0V66.1z"/>
			<path class="st2" d="M100.3,68.4c-1,0-1.7-0.8-1.7-2.3s0.7-2.3,1.8-2.3c1,0,1.6,0.8,1.6,2.3C102,67.8,101.3,68.4,100.3,68.4
				L100.3,68.4z M100.3,68.1c0.8,0,1-1,1-1.9c0-0.8-0.2-1.8-1-1.8s-1,1-1,1.8C99.3,67.1,99.5,68.1,100.3,68.1L100.3,68.1z"/>
			<path class="st2" d="M107.6,68.3c-0.2,0.1-0.7,0.2-1.1,0.2c-0.5,0-1-0.1-1.4-0.4s-0.7-1-0.7-1.8c0-1.8,1.2-2.4,2.3-2.4
				c0.4,0,0.7,0.1,0.8,0.1l-0.2,0.4c-0.2-0.1-0.4-0.1-0.7-0.1c-0.7,0-1.6,0.4-1.6,1.8s0.7,1.8,1.4,1.8c0.2,0,0.4,0,0.4-0.1v-1.5H106
				v-0.4h1.4v2.4H107.6z"/>
			<path class="st2" d="M110.3,63.9c0.3-0.1,0.7-0.1,1-0.1c0.6,0,1,0.1,1.4,0.3c0.3,0.2,0.4,0.5,0.4,0.9c0,0.6-0.4,1-1,1.2l0,0
				c0.4,0.1,0.7,0.4,0.8,1c0.1,0.6,0.3,1,0.3,1.1h-0.7c-0.1-0.1-0.2-0.6-0.3-1.1c-0.1-0.6-0.4-0.9-1-0.9h-0.3v2h-0.7L110.3,63.9
				L110.3,63.9z M111,66.1h0.3c0.7,0,1.1-0.4,1.1-0.9s-0.3-0.8-1-0.9c-0.1,0-0.3,0-0.4,0V66.1z"/>
			<path class="st2" d="M116.5,67.1l-0.4,1.4h-0.7l1.4-4.5h0.8l1.3,4.5h-0.7l-0.4-1.4H116.5z M117.8,66.7l-0.3-1.1
				c-0.1-0.3-0.2-0.7-0.2-1l0,0c-0.1,0.3-0.2,0.7-0.2,1l-0.3,1.1H117.8z"/>
			<path class="st2" d="M125,66.4c0-0.6-0.1-1.3-0.1-1.8l0,0c-0.1,0.5-0.3,1-0.5,1.6l-0.7,2.1h-0.4l-0.7-2c-0.2-0.6-0.4-1.1-0.5-1.7
				l0,0c0,0.5,0,1.2-0.1,1.8l-0.1,1.9h-0.6l0.4-4.5h0.7l0.7,2.1c0.2,0.6,0.4,1,0.5,1.6l0,0c0.1-0.5,0.2-0.9,0.4-1.6l0.7-2.1h0.8
				l0.3,4.5h-0.6L125,66.4z"/>
			<path class="st2" d="M128.1,69.3c0.2-0.4,0.4-1.1,0.5-1.6l0.8-0.1c-0.2,0.5-0.6,1.3-0.8,1.6L128.1,69.3z"/>
			<path class="st2" d="M135.9,63.8v4.5h-0.7v-4.5C135.2,63.8,135.9,63.8,135.9,63.8z"/>
			<path class="st2" d="M138.8,68.4v-4.5h0.6l1.1,2.1c0.2,0.5,0.6,1.1,0.8,1.6l0,0c-0.1-0.7-0.1-1.3-0.1-2.1v-1.6h0.6v4.5h-0.6
				l-1.1-2.2c-0.2-0.5-0.5-1-0.7-1.5l0,0c0.1,0.6,0.1,1.2,0.1,2.1v1.6H138.8z"/>
			<path class="st2" d="M147.4,68.3c-0.2,0.1-0.5,0.1-0.9,0.1c-1.2,0-2-0.7-2-2.2c0-1.8,1.2-2.4,2.1-2.4c0.4,0,0.6,0.1,0.7,0.1
				l-0.2,0.4c-0.1,0-0.3-0.1-0.6-0.1c-0.6,0-1.4,0.5-1.4,1.8c0,1.4,0.7,1.8,1.4,1.8c0.3,0,0.5,0,0.6-0.1L147.4,68.3z"/>
			<path class="st2" d="M150.2,68.4c-0.2,0-0.4-0.2-0.4-0.4c0-0.2,0.2-0.4,0.5-0.4s0.5,0.2,0.5,0.4
				C150.7,68.3,150.5,68.4,150.2,68.4L150.2,68.4z"/>
		</g>
	</g>
</g>
<g id="Layer_3">
	<g>
		<path class="st3" d="M2.8,82.4c0.4,0.2,1.1,0.4,1.7,0.4c0.7,0,1.1-0.3,1.1-0.7c0-0.4-0.3-0.7-1.2-1c-1.1-0.4-1.9-1-1.9-2
			c0-1.2,1-2.1,2.6-2.1c0.8,0,1.3,0.2,1.8,0.3l-0.3,1.2c-0.3-0.1-0.8-0.3-1.4-0.3c-0.7,0-1,0.3-1,0.7c0,0.4,0.4,0.6,1.3,1
			c1.2,0.4,1.8,1.1,1.8,2c0,1.2-0.9,2.1-2.8,2.1c-0.8,0-1.6-0.2-1.9-0.4L2.8,82.4z"/>
		<path class="st2" d="M12.9,82.4c0,0.7,0,1.2,0,1.6h-1.3l-0.1-0.7h0c-0.2,0.3-0.7,0.8-1.6,0.8c-1,0-1.8-0.6-1.8-2.2V79h1.5v2.7
			c0,0.7,0.2,1.2,0.8,1.2c0.4,0,0.7-0.3,0.8-0.5c0-0.1,0.1-0.2,0.1-0.3v-3h1.5V82.4z"/>
		<path class="st2" d="M17.9,83.8c-0.3,0.1-0.8,0.2-1.4,0.2c-1.6,0-2.6-1-2.6-2.5c0-1.5,1-2.7,2.9-2.7c0.4,0,0.9,0.1,1.2,0.2
			l-0.2,1.2c-0.2-0.1-0.5-0.2-0.9-0.2c-0.8,0-1.3,0.6-1.3,1.4c0,0.9,0.6,1.4,1.4,1.4c0.4,0,0.7-0.1,0.9-0.2L17.9,83.8z"/>
		<path class="st2" d="M22.4,83.8c-0.3,0.1-0.8,0.2-1.4,0.2c-1.6,0-2.6-1-2.6-2.5c0-1.5,1-2.7,2.9-2.7c0.4,0,0.9,0.1,1.2,0.2
			l-0.2,1.2c-0.2-0.1-0.5-0.2-0.9-0.2c-0.8,0-1.3,0.6-1.3,1.4c0,0.9,0.6,1.4,1.4,1.4c0.4,0,0.7-0.1,0.9-0.2L22.4,83.8z"/>
		<path class="st2" d="M24.3,82c0,0.6,0.7,0.9,1.4,0.9c0.5,0,1-0.1,1.4-0.2l0.2,1c-0.5,0.2-1.1,0.3-1.8,0.3c-1.7,0-2.7-1-2.7-2.5
			c0-1.3,0.8-2.7,2.5-2.7c1.6,0,2.2,1.3,2.2,2.5c0,0.3,0,0.5-0.1,0.6H24.3z M26.1,80.9c0-0.4-0.2-1-0.9-1c-0.7,0-0.9,0.6-1,1H26.1z"
			/>
		<path class="st2" d="M28.5,82.6c0.3,0.2,0.9,0.4,1.3,0.4c0.5,0,0.7-0.2,0.7-0.4c0-0.3-0.2-0.4-0.7-0.6c-1-0.3-1.4-0.9-1.4-1.5
			c0-0.9,0.8-1.6,2-1.6c0.6,0,1.1,0.1,1.4,0.3l-0.3,1.1c-0.2-0.1-0.7-0.3-1.1-0.3c-0.4,0-0.6,0.2-0.6,0.4c0,0.2,0.2,0.4,0.8,0.6
			c0.9,0.3,1.3,0.8,1.3,1.5c0,0.9-0.7,1.6-2.2,1.6c-0.7,0-1.2-0.2-1.6-0.4L28.5,82.6z"/>
		<path class="st2" d="M32.9,82.6c0.3,0.2,0.9,0.4,1.3,0.4c0.5,0,0.7-0.2,0.7-0.4c0-0.3-0.2-0.4-0.7-0.6c-1-0.3-1.4-0.9-1.4-1.5
			c0-0.9,0.8-1.6,2-1.6c0.6,0,1.1,0.1,1.4,0.3l-0.3,1.1c-0.2-0.1-0.7-0.3-1.1-0.3c-0.4,0-0.6,0.2-0.6,0.4c0,0.2,0.2,0.4,0.8,0.6
			c0.9,0.3,1.3,0.8,1.3,1.5c0,0.9-0.7,1.6-2.2,1.6c-0.7,0-1.2-0.2-1.6-0.4L32.9,82.6z"/>
		<path class="st3" d="M40.4,78.4h-1.9v-1.3h5.3v1.3h-1.9V84h-1.5V78.4z"/>
		<path class="st2" d="M44.5,76.7H46v2.9h0c0.2-0.2,0.4-0.4,0.6-0.5c0.2-0.1,0.5-0.2,0.8-0.2c1,0,1.7,0.7,1.7,2.2V84h-1.5v-2.7
			c0-0.7-0.2-1.1-0.8-1.1c-0.4,0-0.7,0.3-0.8,0.6c0,0.1-0.1,0.2-0.1,0.3v3h-1.5V76.7z"/>
		<path class="st2" d="M50.5,80.6c0-0.7,0-1.2,0-1.6h1.3l0.1,0.9h0c0.3-0.7,0.9-1,1.3-1c0.1,0,0.2,0,0.3,0v1.5c-0.1,0-0.2,0-0.4,0
			c-0.6,0-1,0.3-1.1,0.8c0,0.1,0,0.2,0,0.3V84h-1.5V80.6z"/>
		<path class="st2" d="M59.2,81.4c0,1.8-1.3,2.7-2.6,2.7c-1.5,0-2.6-1-2.6-2.6c0-1.6,1.1-2.7,2.7-2.7C58.2,78.9,59.2,79.9,59.2,81.4
			z M55.6,81.5c0,0.9,0.4,1.5,1,1.5c0.6,0,1-0.6,1-1.5c0-0.7-0.3-1.5-1-1.5C55.8,80,55.6,80.7,55.6,81.5z"/>
		<path class="st2" d="M64.8,82.4c0,0.7,0,1.2,0,1.6h-1.3l-0.1-0.7h0c-0.2,0.3-0.7,0.8-1.6,0.8c-1,0-1.8-0.6-1.8-2.2V79h1.5v2.7
			c0,0.7,0.2,1.2,0.8,1.2c0.4,0,0.7-0.3,0.8-0.5c0-0.1,0.1-0.2,0.1-0.3v-3h1.5V82.4z"/>
		<path class="st2" d="M70.8,83.2c0,1-0.2,1.7-0.8,2.2c-0.5,0.5-1.3,0.6-2,0.6c-0.7,0-1.3-0.1-1.8-0.4l0.3-1.2
			c0.3,0.2,0.9,0.4,1.4,0.4c0.7,0,1.3-0.4,1.3-1.3v-0.3h0c-0.3,0.4-0.8,0.6-1.3,0.6c-1.2,0-2.1-1-2.1-2.4c0-1.6,1-2.6,2.3-2.6
			c0.7,0,1.1,0.3,1.4,0.7h0l0.1-0.6h1.3c0,0.3,0,0.7,0,1.5V83.2z M69.2,81c0-0.1,0-0.2,0-0.3c-0.1-0.4-0.4-0.7-0.8-0.7
			c-0.6,0-1,0.5-1,1.4c0,0.7,0.4,1.3,1,1.3c0.4,0,0.7-0.3,0.8-0.6c0-0.1,0.1-0.3,0.1-0.4V81z"/>
		<path class="st2" d="M72,76.7h1.5v2.9h0c0.2-0.2,0.4-0.4,0.6-0.5c0.2-0.1,0.5-0.2,0.8-0.2c1,0,1.7,0.7,1.7,2.2V84h-1.5v-2.7
			c0-0.7-0.2-1.1-0.8-1.1c-0.4,0-0.7,0.3-0.8,0.6c0,0.1-0.1,0.2-0.1,0.3v3H72V76.7z"/>
		<path class="st2" d="M81.7,82.2L81.2,84h-1.6l2.1-6.9h2l2.1,6.9h-1.7l-0.5-1.8H81.7z M83.5,81L83,79.6c-0.1-0.4-0.2-0.9-0.3-1.3h0
			c-0.1,0.4-0.2,0.9-0.3,1.3L82,81H83.5z"/>
		<path class="st2" d="M90.4,83.8c-0.3,0.1-0.8,0.2-1.4,0.2c-1.6,0-2.6-1-2.6-2.5c0-1.5,1-2.7,2.9-2.7c0.4,0,0.9,0.1,1.2,0.2
			l-0.2,1.2c-0.2-0.1-0.5-0.2-0.9-0.2c-0.8,0-1.3,0.6-1.3,1.4c0,0.9,0.6,1.4,1.4,1.4c0.4,0,0.7-0.1,0.9-0.2L90.4,83.8z"/>
		<path class="st2" d="M95.4,82.8c0,0.5,0,0.9,0.1,1.2h-1.4L94,83.5h0c-0.3,0.4-0.8,0.6-1.4,0.6c-1,0-1.6-0.7-1.6-1.5
			c0-1.3,1.2-1.9,2.9-1.9v-0.1c0-0.3-0.1-0.7-0.9-0.7c-0.5,0-1.1,0.2-1.4,0.4l-0.3-1c0.3-0.2,1-0.4,1.9-0.4c1.7,0,2.2,1,2.2,2.2
			V82.8z M93.9,81.6c-0.8,0-1.4,0.2-1.4,0.8c0,0.4,0.3,0.6,0.6,0.6c0.4,0,0.7-0.3,0.8-0.6c0-0.1,0-0.2,0-0.3V81.6z"/>
		<path class="st2" d="M101.5,76.7v5.7c0,0.6,0,1.2,0,1.5h-1.4l-0.1-0.7h0c-0.3,0.6-0.9,0.8-1.6,0.8c-1.2,0-2.1-1-2.1-2.6
			c0-1.7,1-2.7,2.2-2.7c0.6,0,1.1,0.2,1.3,0.6h0v-2.7H101.5z M99.9,81.1c0-0.1,0-0.2,0-0.3C99.8,80.4,99.5,80,99,80
			c-0.7,0-1.1,0.6-1.1,1.4c0,0.8,0.4,1.4,1.1,1.4c0.4,0,0.8-0.3,0.9-0.7c0-0.1,0-0.2,0-0.4V81.1z"/>
		<path class="st2" d="M103.9,82c0,0.6,0.7,0.9,1.4,0.9c0.5,0,1-0.1,1.4-0.2l0.2,1c-0.5,0.2-1.1,0.3-1.8,0.3c-1.7,0-2.7-1-2.7-2.5
			c0-1.3,0.8-2.7,2.5-2.7c1.6,0,2.2,1.3,2.2,2.5c0,0.3,0,0.5-0.1,0.6H103.9z M105.8,80.9c0-0.4-0.2-1-0.9-1c-0.7,0-0.9,0.6-1,1
			H105.8z"/>
		<path class="st2" d="M108.1,80.6c0-0.6,0-1.1,0-1.6h1.3l0.1,0.7h0c0.2-0.3,0.7-0.8,1.5-0.8c0.7,0,1.2,0.3,1.4,0.9h0
			c0.2-0.3,0.4-0.5,0.7-0.6c0.3-0.2,0.6-0.2,0.9-0.2c1,0,1.7,0.7,1.7,2.2V84h-1.5v-2.7c0-0.7-0.2-1.1-0.7-1.1
			c-0.4,0-0.6,0.2-0.7,0.5c0,0.1-0.1,0.3-0.1,0.4V84h-1.5v-2.8c0-0.6-0.2-1-0.7-1c-0.4,0-0.6,0.3-0.7,0.5c-0.1,0.1-0.1,0.3-0.1,0.4
			V84h-1.5V80.6z"/>
		<path class="st2" d="M118.5,77.6c0,0.4-0.3,0.8-0.8,0.8c-0.5,0-0.8-0.3-0.8-0.8c0-0.4,0.3-0.8,0.8-0.8
			C118.2,76.8,118.5,77.2,118.5,77.6z M116.9,84v-5h1.5v5H116.9z"/>
		<path class="st2" d="M123.4,83.8c-0.3,0.1-0.8,0.2-1.4,0.2c-1.6,0-2.6-1-2.6-2.5c0-1.5,1-2.7,2.9-2.7c0.4,0,0.9,0.1,1.2,0.2
			l-0.2,1.2c-0.2-0.1-0.5-0.2-0.9-0.2c-0.8,0-1.3,0.6-1.3,1.4c0,0.9,0.6,1.4,1.4,1.4c0.4,0,0.7-0.1,0.9-0.2L123.4,83.8z"/>
		<path class="st3" d="M126.4,77.2c0.5-0.1,1.2-0.1,2.1-0.1c1,0,1.7,0.2,2.2,0.5c0.4,0.3,0.6,0.8,0.6,1.4c0,0.9-0.6,1.5-1.2,1.7v0
			c0.5,0.2,0.7,0.6,0.9,1.3c0.2,0.8,0.4,1.7,0.6,1.9H130c-0.1-0.2-0.3-0.8-0.5-1.6c-0.2-0.9-0.5-1.1-1.1-1.1h-0.5V84h-1.5V77.2z
			 M127.9,80.1h0.6c0.8,0,1.2-0.4,1.2-1c0-0.6-0.4-0.9-1.1-0.9c-0.4,0-0.6,0-0.7,0.1V80.1z"/>
		<path class="st2" d="M133.6,82c0,0.6,0.7,0.9,1.4,0.9c0.5,0,1-0.1,1.4-0.2l0.2,1c-0.5,0.2-1.1,0.3-1.8,0.3c-1.7,0-2.7-1-2.7-2.5
			c0-1.3,0.8-2.7,2.5-2.7c1.6,0,2.2,1.3,2.2,2.5c0,0.3,0,0.5-0.1,0.6H133.6z M135.4,80.9c0-0.4-0.2-1-0.9-1c-0.7,0-0.9,0.6-1,1
			H135.4z"/>
		<path class="st2" d="M141.9,82.8c0,0.5,0,0.9,0.1,1.2h-1.4l-0.1-0.5h0c-0.3,0.4-0.8,0.6-1.4,0.6c-1,0-1.6-0.7-1.6-1.5
			c0-1.3,1.2-1.9,2.9-1.9v-0.1c0-0.3-0.1-0.7-0.9-0.7c-0.5,0-1,0.2-1.4,0.4l-0.3-1c0.3-0.2,1-0.4,1.9-0.4c1.7,0,2.2,1,2.2,2.2V82.8z
			 M140.4,81.6c-0.8,0-1.4,0.2-1.4,0.8c0,0.4,0.3,0.6,0.6,0.6c0.4,0,0.7-0.3,0.8-0.6c0-0.1,0-0.2,0-0.3V81.6z"/>
		<path class="st2" d="M148,76.7v5.7c0,0.6,0,1.2,0,1.5h-1.4l-0.1-0.7h0c-0.3,0.6-0.9,0.8-1.6,0.8c-1.2,0-2.1-1-2.1-2.6
			c0-1.7,1-2.7,2.2-2.7c0.6,0,1.1,0.2,1.3,0.6h0v-2.7H148z M146.4,81.1c0-0.1,0-0.2,0-0.3c-0.1-0.4-0.4-0.8-0.9-0.8
			c-0.7,0-1.1,0.6-1.1,1.4c0,0.8,0.4,1.4,1.1,1.4c0.4,0,0.8-0.3,0.9-0.7c0-0.1,0-0.2,0-0.4V81.1z"/>
		<path class="st2" d="M150.8,77.6c0,0.4-0.3,0.8-0.8,0.8c-0.5,0-0.8-0.3-0.8-0.8c0-0.4,0.3-0.8,0.8-0.8
			C150.5,76.8,150.8,77.2,150.8,77.6z M149.2,84v-5h1.5v5H149.2z"/>
		<path class="st2" d="M152,80.6c0-0.6,0-1.1,0-1.6h1.3l0.1,0.7h0c0.2-0.3,0.7-0.8,1.5-0.8c1,0,1.8,0.7,1.8,2.2V84h-1.5v-2.8
			c0-0.6-0.2-1.1-0.8-1.1c-0.4,0-0.7,0.3-0.8,0.6c0,0.1-0.1,0.2-0.1,0.4V84H152V80.6z"/>
		<path class="st2" d="M159.2,82c0,0.6,0.7,0.9,1.4,0.9c0.5,0,1-0.1,1.4-0.2l0.2,1c-0.5,0.2-1.1,0.3-1.8,0.3c-1.7,0-2.7-1-2.7-2.5
			c0-1.3,0.8-2.7,2.5-2.7c1.6,0,2.2,1.3,2.2,2.5c0,0.3,0,0.5-0.1,0.6H159.2z M161,80.9c0-0.4-0.2-1-0.9-1c-0.7,0-0.9,0.6-1,1H161z"
			/>
		<path class="st2" d="M163.4,82.6c0.3,0.2,0.9,0.4,1.3,0.4c0.5,0,0.7-0.2,0.7-0.4c0-0.3-0.2-0.4-0.7-0.6c-1-0.3-1.4-0.9-1.4-1.5
			c0-0.9,0.8-1.6,2-1.6c0.6,0,1.1,0.1,1.4,0.3l-0.3,1.1c-0.2-0.1-0.7-0.3-1.1-0.3c-0.4,0-0.6,0.2-0.6,0.4c0,0.2,0.2,0.4,0.8,0.6
			c0.9,0.3,1.3,0.8,1.3,1.5c0,0.9-0.7,1.6-2.2,1.6c-0.7,0-1.2-0.2-1.6-0.4L163.4,82.6z"/>
		<path class="st2" d="M167.8,82.6c0.3,0.2,0.9,0.4,1.3,0.4c0.5,0,0.7-0.2,0.7-0.4c0-0.3-0.2-0.4-0.7-0.6c-1-0.3-1.4-0.9-1.4-1.5
			c0-0.9,0.8-1.6,2-1.6c0.6,0,1.1,0.1,1.4,0.3l-0.3,1.1c-0.2-0.1-0.7-0.3-1.1-0.3c-0.4,0-0.6,0.2-0.6,0.4c0,0.2,0.2,0.4,0.8,0.6
			c0.9,0.3,1.3,0.8,1.3,1.5c0,0.9-0.7,1.6-2.2,1.6c-0.7,0-1.2-0.2-1.6-0.4L167.8,82.6z"/>
	</g>
</g>
</svg>
