<?xml version="1.0" encoding="utf-8"?>
<!-- Generator: Adobe Illustrator 21.0.0, SVG Export Plug-In . SVG Version: 6.00 Build 0)  -->
<svg version="1.1" id="Layer_1" xmlns="http://www.w3.org/2000/svg" xmlns:xlink="http://www.w3.org/1999/xlink" x="0px" y="0px"
	 viewBox="0 0 140 140" style="enable-background:new 0 0 140 140;" xml:space="preserve">
<g>
	<g>
		<path d="M133.4,76.2c-1.7-2.8-3.6-5.4-5.5-8.1c0.3-0.2,0.5-0.4,0.8-0.5c2.8-1.1,4.9-2.9,6-5.8c1.1-2.8,1-5.6,0.5-8.3
			c-0.5-3-2-5.9-4.5-7.9c-2.8-2.2-6.8-3.5-10.3-3.6c-6.1-0.1-12.3,0-18.4,0c-0.9,0-1.6-0.1-2.8,0c0.2,5.2,0,10.4,0.2,15.8
			c4.8,0.4,9.4-0.1,14.6,0.3c-5.2,4.3-10.5,7.2-14.9,11.4c0.1,5.2,0,9.7,0.3,15.5c1.9,0.1,3.6,0.1,5.3,0.1c1.7,0,7.5,0.2,10.4-0.1
			V72.4c2.6,4.6,3.9,9.1,6.5,12.6c7.1-0.2,12.7-0.2,17.2-0.4C136.5,80.8,135,78.9,133.4,76.2z M119.7,58.8c-0.9,1.5-2.5,2.2-4.8,1.7
			V54c1.3-0.7,2.2-0.3,3.2,0.2c0.4,0.2,0.8,0.5,1,0.9C120,56.3,120.4,57.6,119.7,58.8z"/>
		<path d="M29,59.4c-2.4-0.9-4.9-1.6-7.4-2.3c-2-0.5-2.5-0.7-2.9-2c-0.1-0.2-0.1-0.8,0-1.1c0.1-0.2,0.2-0.5,0.5-0.9
			c0.3-0.3,1-0.4,1.6-0.5c3.5-0.5,6.3,2.1,9.5,3.5c1.2-3.9,2.8-7.6,4-11.3c-4.6-3.1-9.7-3.8-14.8-3.5C13,41.8,7.5,44.1,4.3,50.2
			C0.4,57.5,3,65.6,11.1,68.1c2.1,0.6,4.3,0.9,6.4,1.4c0.9,0.2,1.7,0.5,2.2,1.3c0.2,0.4,0.2,0.8,0,1.2c-1.2,1.9-2.6,2.5-4.8,2
			c-1.2-0.3-2.3-0.8-3.4-1.3c-1.8-0.9-3.5-1.8-5.3-2.7c-1.6,2-3.9,7.9-4.7,12c1.4,0.6,2.7,1.2,4,1.6c2.4,0.7,4.7,1.5,7.2,1.9
			c7.5,1.1,14.3,0,19.5-5.8c3.2-3.6,4.8-7.8,3.2-12.7C34.4,63.4,32.5,60.6,29,59.4z"/>
		<path d="M111.4,59c-4.5-0.3-8.1-0.2-11.8-0.3c-3.8-0.1-7.6-0.4-11.8-0.4c-0.8-2.6-1.6-4.9-2.4-7.3c-0.7-2.3-1.3-4.6-2.1-6.9
			c-0.8-2.3-1.4-4.6-2.7-7.1c-0.4,1.1-0.6,1.6-1,2.6c-1.4,4.3-3,8.6-4.4,12.9c-0.6,2-1.3,3.9-2,5.8c-5.6,0-10.8,0.1-16.1,0.2
			c-2.7,0.2-3.9,0.1-7.4,0.3c3.7,2.6,6.9,5.1,10,7.5c3,2.4,6.5,4.2,8.8,7.1c-2.4,7.4-4.8,14.5-7.3,22.3c3.9-2.2,6.6-4.8,9.7-6.8
			c3.2-2.2,6.3-4.5,9.5-6.9c6.9,4.2,12.8,9.7,19.6,13.7c-2.5-7.5-5-15.1-7.5-22.7C98.8,68.4,104.8,63.9,111.4,59z M90.2,70.8
			c-1.2,0.2-2.3,0.4-3.6,0.6c-0.3,1.8-0.6,3.4-0.9,5.1c0.4,1.2,0.7,2.5,1.2,4c-1.1,0.1-2.1,0.2-2.9,0.2c-2.7-2.7,0-5.4-0.2-8
			c-2.1-0.4-2.7-0.3-6.2,1.5c-2.3-1.3-4.6-2.5-7.2-4c-0.3-0.8-0.8-2.1-1.3-3.5c-2-0.9-4.1-1.9-6.3-2.9c5.9-0.9,11.9-1.7,18.5-2.7
			c3.9,1.6,8.5,3.4,13,5.2c-0.8,1.7-2.6,0.8-3.6,1.5C89.3,68.5,90.1,69.7,90.2,70.8z"/>
		<path d="M61.5,68.7C56.7,65.1,52,61.5,47.2,58c0,0,0,0,0-0.1c1.6,0,3.2,0,4.7-0.1h10.2V56c0,0,0-0.1,0.1-0.1h6.8
			C69,50.8,69,44.7,68.9,42.2c-4.3-0.6-29.5-0.4-31.5,0.3c0,4.4,0.2,11.4,0.4,13.7h7.8c0,1.3,0,2.3,0,3.3c0,7.4,0,14.7,0,22.1
			c0,1.1,0,2.1,0.1,3c5.3-0.1,11-0.2,15.7-0.3C61.6,79.3,61.6,74.1,61.5,68.7z"/>
	</g>
	<g>
		<path d="M10,101.6c0.2,0.1,0.6,0.2,0.9,0.2c0.6,0,1-0.3,1-0.8c0-0.4-0.3-0.7-0.8-0.9c-0.5-0.2-1.1-0.7-1.1-1.3
			c0-0.7,0.6-1.2,1.6-1.2c0.4,0,0.7,0.1,0.8,0.2l-0.2,0.4c-0.2-0.1-0.4-0.2-0.7-0.2c-0.6,0-0.9,0.3-0.9,0.6c0,0.4,0.3,0.6,0.9,0.9
			c0.7,0.4,1,0.8,1,1.3c0,0.8-0.7,1.3-1.7,1.3c-0.4,0-0.8-0.1-1-0.2L10,101.6z"/>
		<path d="M15.1,97.7c0.3-0.1,0.6-0.1,1-0.1c0.6,0,1,0.1,1.3,0.3c0.3,0.2,0.4,0.5,0.4,0.9c0,0.4-0.1,0.7-0.4,0.9
			c-0.3,0.3-0.9,0.5-1.4,0.5c-0.1,0-0.2,0-0.3,0v1.8h-0.7V97.7z M15.8,99.9c0.1,0,0.2,0,0.3,0c0.7,0,1.1-0.3,1.1-1
			c0-0.5-0.2-0.9-1-0.9c-0.2,0-0.3,0-0.4,0V99.9z"/>
		<path d="M21.9,102.2c-1,0-1.7-0.8-1.7-2.3c0-1.5,0.7-2.3,1.8-2.3c1,0,1.6,0.8,1.6,2.3C23.6,101.6,22.8,102.2,21.9,102.2
			L21.9,102.2z M21.9,101.8c0.8,0,1-1,1-1.9c0-0.8-0.2-1.8-1-1.8c-0.8,0-1,1-1,1.8C20.9,100.8,21.1,101.8,21.9,101.8L21.9,101.8z"/>
		<path d="M26.2,102.2v-4.5h0.6l1.1,2.1c0.2,0.5,0.6,1.1,0.8,1.6h0c-0.1-0.7-0.1-1.3-0.1-2.1v-1.6h0.6v4.5h-0.6l-1.1-2.2
			c-0.2-0.5-0.5-1-0.7-1.5h0c0.1,0.6,0.1,1.2,0.1,2.1v1.6H26.2z"/>
		<path d="M32,101.6c0.2,0.1,0.6,0.2,0.9,0.2c0.6,0,1-0.3,1-0.8c0-0.4-0.3-0.7-0.8-0.9c-0.5-0.2-1.1-0.7-1.1-1.3
			c0-0.7,0.6-1.2,1.6-1.2c0.4,0,0.7,0.1,0.8,0.2l-0.2,0.4c-0.2-0.1-0.4-0.2-0.7-0.2c-0.6,0-0.9,0.3-0.9,0.6c0,0.4,0.3,0.6,0.9,0.9
			c0.7,0.4,1,0.8,1,1.3c0,0.8-0.7,1.3-1.7,1.3c-0.4,0-0.8-0.1-1-0.2L32,101.6z"/>
		<path d="M38.6,102.2c-1,0-1.7-0.8-1.7-2.3c0-1.5,0.7-2.3,1.8-2.3c1,0,1.6,0.8,1.6,2.3C40.3,101.6,39.5,102.2,38.6,102.2
			L38.6,102.2z M38.6,101.8c0.8,0,1-1,1-1.9c0-0.8-0.2-1.8-1-1.8s-1,1-1,1.8C37.6,100.8,37.8,101.8,38.6,101.8L38.6,101.8z"/>
		<path d="M42.9,97.7c0.3-0.1,0.7-0.1,1-0.1c0.6,0,1,0.1,1.4,0.3c0.3,0.2,0.4,0.5,0.4,0.9c0,0.6-0.4,1-1,1.2v0
			c0.4,0.1,0.7,0.4,0.8,1c0.1,0.6,0.3,1,0.3,1.1h-0.7c-0.1-0.1-0.2-0.6-0.3-1.1c-0.1-0.6-0.4-0.9-1-0.9h-0.3v2h-0.7V97.7z
			 M43.6,99.8h0.3c0.7,0,1.1-0.4,1.1-0.9c0-0.5-0.3-0.8-1-0.9c-0.1,0-0.3,0-0.4,0V99.8z"/>
		<path d="M48.2,101.6c0.2,0.1,0.6,0.2,0.9,0.2c0.6,0,1-0.3,1-0.8c0-0.4-0.3-0.7-0.8-0.9c-0.5-0.2-1.1-0.7-1.1-1.3
			c0-0.7,0.6-1.2,1.6-1.2c0.4,0,0.7,0.1,0.8,0.2l-0.2,0.4c-0.2-0.1-0.4-0.2-0.7-0.2c-0.6,0-0.9,0.3-0.9,0.6c0,0.4,0.3,0.6,0.9,0.9
			c0.7,0.4,1,0.8,1,1.3c0,0.8-0.7,1.3-1.7,1.3c-0.4,0-0.8-0.1-1-0.2L48.2,101.6z"/>
		<path d="M54.1,97.6v1.9h1.7v-1.9h0.7v4.5h-0.7V100h-1.7v2.1h-0.7v-4.5H54.1z"/>
		<path d="M60,97.6v4.5h-0.7v-4.5H60z"/>
		<path d="M62.8,97.7c0.3-0.1,0.6-0.1,1-0.1c0.6,0,1,0.1,1.3,0.3c0.3,0.2,0.4,0.5,0.4,0.9c0,0.4-0.1,0.7-0.4,0.9
			c-0.3,0.3-0.9,0.5-1.4,0.5c-0.1,0-0.2,0-0.3,0v1.8h-0.7V97.7z M63.5,99.9c0.1,0,0.2,0,0.3,0c0.7,0,1.1-0.3,1.1-1
			c0-0.5-0.2-0.9-1-0.9c-0.2,0-0.3,0-0.4,0V99.9z"/>
		<path d="M71.4,97.7c0.3-0.1,0.6-0.1,1-0.1c0.6,0,1,0.1,1.3,0.3c0.3,0.2,0.4,0.5,0.4,0.9c0,0.4-0.1,0.7-0.4,0.9
			c-0.3,0.3-0.9,0.5-1.4,0.5c-0.1,0-0.2,0-0.3,0v1.8h-0.7V97.7z M72.1,99.9c0.1,0,0.2,0,0.3,0c0.7,0,1.1-0.3,1.1-1
			c0-0.5-0.2-0.9-1-0.9c-0.2,0-0.3,0-0.4,0V99.9z"/>
		<path d="M76.7,97.7c0.3-0.1,0.7-0.1,1-0.1c0.6,0,1,0.1,1.4,0.3c0.3,0.2,0.4,0.5,0.4,0.9c0,0.6-0.4,1-1,1.2v0
			c0.4,0.1,0.7,0.4,0.8,1c0.1,0.6,0.3,1,0.3,1.1H79c-0.1-0.1-0.2-0.6-0.3-1.1c-0.1-0.6-0.4-0.9-1-0.9h-0.3v2h-0.7V97.7z M77.4,99.8
			h0.3c0.7,0,1.1-0.4,1.1-0.9c0-0.5-0.3-0.8-1-0.9c-0.1,0-0.3,0-0.4,0V99.8z"/>
		<path d="M83.6,102.2c-1,0-1.7-0.8-1.7-2.3c0-1.5,0.7-2.3,1.8-2.3c1,0,1.6,0.8,1.6,2.3C85.3,101.6,84.6,102.2,83.6,102.2
			L83.6,102.2z M83.6,101.8c0.8,0,1-1,1-1.9c0-0.8-0.2-1.8-1-1.8s-1,1-1,1.8C82.6,100.8,82.8,101.8,83.6,101.8L83.6,101.8z"/>
		<path d="M90.9,102c-0.2,0.1-0.7,0.2-1.1,0.2c-0.5,0-1-0.1-1.4-0.4c-0.4-0.3-0.7-1-0.7-1.8c0-1.8,1.2-2.4,2.3-2.4
			c0.4,0,0.7,0.1,0.8,0.1l-0.2,0.4c-0.2-0.1-0.4-0.1-0.7-0.1c-0.7,0-1.6,0.4-1.6,1.8c0,1.4,0.7,1.8,1.4,1.8c0.2,0,0.4,0,0.4-0.1
			v-1.5h-0.8v-0.4h1.4V102z"/>
		<path d="M93.6,97.7c0.3-0.1,0.7-0.1,1-0.1c0.6,0,1,0.1,1.4,0.3c0.3,0.2,0.4,0.5,0.4,0.9c0,0.6-0.4,1-1,1.2v0
			c0.4,0.1,0.7,0.4,0.8,1c0.1,0.6,0.3,1,0.3,1.1h-0.7c-0.1-0.1-0.2-0.6-0.3-1.1c-0.1-0.6-0.4-0.9-1-0.9h-0.3v2h-0.7V97.7z
			 M94.3,99.8h0.3c0.7,0,1.1-0.4,1.1-0.9c0-0.5-0.3-0.8-1-0.9c-0.1,0-0.3,0-0.4,0V99.8z"/>
		<path d="M99.8,100.8l-0.4,1.4h-0.7l1.4-4.5h0.8l1.3,4.5h-0.7l-0.4-1.4H99.8z M101.1,100.4l-0.3-1.1c-0.1-0.3-0.2-0.7-0.2-1h0
			c-0.1,0.3-0.2,0.7-0.2,1l-0.3,1.1H101.1z"/>
		<path d="M108.3,100.2c0-0.6-0.1-1.3-0.1-1.8h0c-0.1,0.5-0.3,1-0.5,1.6l-0.7,2.1h-0.4l-0.7-2c-0.2-0.6-0.4-1.1-0.5-1.7h0
			c0,0.5,0,1.2-0.1,1.8l-0.1,1.9h-0.6l0.4-4.5h0.7l0.7,2.1c0.2,0.6,0.4,1,0.5,1.6h0c0.1-0.5,0.2-0.9,0.4-1.6l0.7-2.1h0.8l0.3,4.5
			h-0.6L108.3,100.2z"/>
		<path d="M111.4,103c0.2-0.4,0.4-1.1,0.5-1.6l0.8-0.1c-0.2,0.5-0.6,1.3-0.8,1.6L111.4,103z"/>
		<path d="M119.2,97.6v4.5h-0.7v-4.5H119.2z"/>
		<path d="M122.1,102.2v-4.5h0.6l1.1,2.1c0.2,0.5,0.6,1.1,0.8,1.6h0c-0.1-0.7-0.1-1.3-0.1-2.1v-1.6h0.6v4.5h-0.6l-1.1-2.2
			c-0.2-0.5-0.5-1-0.7-1.5h0c0.1,0.6,0.1,1.2,0.1,2.1v1.6H122.1z"/>
		<path d="M130.7,102.1c-0.2,0.1-0.5,0.1-0.9,0.1c-1.2,0-2-0.7-2-2.2c0-1.8,1.2-2.4,2.1-2.4c0.4,0,0.6,0.1,0.7,0.1l-0.2,0.4
			c-0.1,0-0.3-0.1-0.6-0.1c-0.6,0-1.4,0.5-1.4,1.8c0,1.4,0.7,1.8,1.4,1.8c0.3,0,0.5,0,0.6-0.1L130.7,102.1z"/>
		<path d="M133.5,102.2c-0.2,0-0.4-0.2-0.4-0.4c0-0.2,0.2-0.4,0.5-0.4c0.3,0,0.5,0.2,0.5,0.4C134,102.1,133.8,102.2,133.5,102.2
			L133.5,102.2z"/>
	</g>
</g>
</svg>
